PathFileType	4	(X/Y/Z)	C:/Users/opensim2020/Desktop/walking_exp_matlab/subject06_walking20_straight_03.trc	
DataRate	CameraRate	NumFrames	NumMarkers	Units	OrigDataRate	OrigDataStartFrame	OrigNumFrames	
100.00	100.00	4	43	mm	100.00	1730	132	
Frame#	Time	LFHD			RFHD			LBHD			RBHD			C7			T10			CLAV			STRN			RBAK			LSHO			LUPA			LELB			LFRM			LWRA			LWRB			LFIN			RSHO			RUPA			RELB			RFRM			RWRA			RWRB			RFIN			LASI			RASI			LPSI			RPSI			LTHI			LKNE			LTIB			LANK			LHEE			LTOE			RTHI			RKNE			RTIB			RANK			RHEE			RTOE			*39			*40			*41			*42			
		X1	Y1	Z1	X2	Y2	Z2	X3	Y3	Z3	X4	Y4	Z4	X5	Y5	Z5	X6	Y6	Z6	X7	Y7	Z7	X8	Y8	Z8	X9	Y9	Z9	X10	Y10	Z10	X11	Y11	Z11	X12	Y12	Z12	X13	Y13	Z13	X14	Y14	Z14	X15	Y15	Z15	X16	Y16	Z16	X17	Y17	Z17	X18	Y18	Z18	X19	Y19	Z19	X20	Y20	Z20	X21	Y21	Z21	X22	Y22	Z22	X23	Y23	Z23	X24	Y24	Z24	X25	Y25	Z25	X26	Y26	Z26	X27	Y27	Z27	X28	Y28	Z28	X29	Y29	Z29	X30	Y30	Z30	X31	Y31	Z31	X32	Y32	Z32	X33	Y33	Z33	X34	Y34	Z34	X35	Y35	Z35	X36	Y36	Z36	X37	Y37	Z37	X38	Y38	Z38	X39	Y39	Z39	X40	Y40	Z40	X41	Y41	Z41	X42	Y42	Z42	X43	Y43	Z43	

50	0.490	-1050.25110	-302.15256	1660.96790	-919.58429	-309.97525	1645.77686	-1060.21594	-436.18674	1611.14709	-931.61639	-442.45737	1601.05469	-1002.72278	-445.13367	1453.33130	-994.19714	-503.22366	1129.36218	-1001.97363	-340.34854	1368.70056	-1008.50195	-312.69287	1191.29419	-920.49591	-527.88635	1289.85095	-1163.64441	-396.30063	1403.69910	-1230.09082	-418.80280	1201.06152	-1236.73291	-432.37286	1087.96582	-1261.41443	-403.34155	940.48083	-1228.61438	-323.77713	834.02588	-1256.54956	-388.65680	821.62476	-1264.29761	-336.77328	747.43414	-840.60352	-382.38235	1406.10095	-745.07983	-445.04822	1219.93604	-727.44849	-451.87436	1098.99438	-710.06946	-429.00198	982.09833	-746.41010	-356.51910	851.06250	-704.26434	-408.63092	846.36920	-704.71869	-364.50366	774.88293	-1102.44885	-339.26370	956.56903	-884.37976	-338.20605	962.48517	-1076.34875	-495.61212	991.17932	-908.27521	-487.76025	998.89044	-1170.08984	-342.98279	653.17511	-1147.97302	-286.17520	500.06000	-1137.17334	-401.73969	278.26437	-1098.45398	-469.88168	120.10391	-1047.78271	-508.22900	116.98230	-1112.32788	-349.52655	45.88040	-840.78625	-405.26593	629.30341	-869.76575	-405.92456	504.27917	-881.21021	-491.33435	248.12576	-937.08514	-534.62634	68.70379	-980.74042	-578.89673	47.84309	-941.97876	-384.69220	32.71877	-996.01636	-404.30209	1700.24194									 
51	0.500	-1050.29956	-288.73376	1659.55188	-919.73553	-296.42505	1644.51758	-1060.17712	-422.83438	1609.69995	-931.53491	-428.91803	1599.75256	-1002.51617	-431.85498	1452.13367	-994.07275	-489.96555	1128.03259	-1001.73456	-327.03766	1367.28394	-1008.01965	-299.54001	1189.88550	-919.83038	-514.62457	1288.56506	-1163.48303	-383.12106	1402.21472	-1229.79272	-408.31427	1199.46948	-1236.47095	-423.46823	1086.77368	-1261.48865	-400.53955	938.23846	-1230.21045	-325.14664	828.19714	-1256.77344	-391.82547	818.90515	-1265.39954	-344.08188	742.03955	-840.40869	-369.06073	1405.10120	-744.28644	-430.39178	1218.77222	-726.00214	-435.11429	1097.98010	-708.84668	-408.54755	982.06122	-745.83112	-331.86035	853.79834	-703.36267	-383.42667	847.25977	-704.17804	-336.77451	777.48792	-1101.73376	-325.14789	955.54297	-883.65271	-325.73758	960.94989	-1077.00000	-481.71799	989.83942	-909.05188	-474.79684	997.39252	-1170.29407	-325.50482	653.12671	-1147.19531	-265.85864	501.25772	-1137.16443	-370.69879	273.12753	-1098.42358	-430.01364	111.27766	-1047.80737	-468.33420	105.82137	-1111.64014	-305.59061	44.28515	-841.28748	-396.86670	628.00891	-869.73840	-399.94531	502.89618	-881.60699	-489.07791	247.92990	-937.40503	-534.20135	69.12869	-981.39636	-578.42731	48.34984	-941.66919	-384.60440	32.58410	-996.01263	-390.84872	1698.93408									 
52	0.510	-1050.53687	-275.31891	1657.90430	-919.82751	-282.95831	1643.03320	-1060.16162	-409.41983	1608.00952	-931.48486	-415.31088	1598.17505	-1002.34076	-418.35632	1450.49548	-994.04718	-476.77576	1126.38574	-1001.56256	-313.69421	1365.64526	-1007.48730	-286.32913	1188.22656	-919.34991	-501.31400	1287.24109	-1163.33472	-369.87320	1400.38403	-1229.38257	-397.38654	1197.87219	-1236.39417	-414.49960	1085.50623	-1261.60535	-397.59644	936.11243	-1230.86487	-328.18774	822.17450	-1257.07495	-394.80411	816.55688	-1266.51001	-351.33118	737.40656	-840.28796	-355.72910	1403.81970	-743.23535	-415.59528	1217.55640	-724.66168	-418.42087	1096.80591	-707.69269	-388.25018	981.97534	-745.43542	-307.38281	856.72522	-702.74371	-358.50201	848.14423	-703.77466	-309.22855	780.32874	-1101.10510	-310.89420	954.37451	-883.14685	-313.25583	959.32513	-1077.76770	-468.14679	988.25415	-909.45398	-462.54541	995.91974	-1170.42554	-307.83734	652.97882	-1146.41418	-246.15715	501.92484	-1137.21350	-339.98862	268.08902	-1098.35864	-389.55853	102.88701	-1048.07019	-428.01694	95.46195	-1110.63855	-261.56479	43.25724	-841.84540	-388.36926	626.67493	-869.74811	-393.93524	501.52432	-882.19208	-486.73972	247.72813	-938.00909	-533.77014	69.58894	-982.10980	-578.65643	49.44093	-941.33826	-384.49307	32.44331	-996.12604	-377.40063	1697.26526									 
53	0.520	-1050.72290	-261.92682	1655.96399	-919.98468	-269.30188	1641.28577	-1060.13403	-395.85477	1606.01978	-931.42273	-401.78537	1596.38843	-1002.23901	-404.82715	1448.75586	-994.13348	-463.42111	1124.72302	-1001.43640	-300.27374	1363.81091	-1006.99805	-273.23413	1186.34436	-918.95844	-487.96085	1285.69141	-1163.22168	-356.53073	1398.25330	-1228.99084	-386.70291	1195.96509	-1236.28699	-405.19647	1084.05115	-1261.78540	-394.27887	934.30603	-1232.13232	-329.33054	817.55231	-1257.50757	-397.43341	814.80737	-1267.60815	-358.28412	733.44397	-840.22473	-342.31473	1402.23828	-742.46320	-400.81744	1216.04468	-723.40741	-401.89706	1095.42761	-706.65869	-368.09897	981.79498	-745.06622	-283.11664	859.66290	-702.16089	-334.12991	849.26270	-703.37750	-281.93954	783.28400	-1100.56848	-296.65179	952.95544	-882.54401	-300.34375	957.60162	-1078.48413	-453.83688	986.20392	-910.04083	-449.87076	994.11438	-1170.43311	-289.34955	653.05927	-1145.72461	-227.08366	502.08478	-1137.11145	-308.81293	262.91522	-1098.40796	-348.69946	95.12645	-1048.36584	-387.20523	85.68865	-1109.46753	-217.36992	42.79263	-842.43231	-379.75186	625.23895	-869.79425	-387.73560	500.08087	-882.71747	-484.32321	247.60834	-938.86707	-533.30920	70.05974	-982.99078	-578.08575	50.31144	-940.92798	-384.27020	32.27958	-996.28583	-363.86572	1695.44348									 
